<svg width="89" height="65" viewBox="0 0 89 65" fill="none" xmlns="http://www.w3.org/2000/svg">
<path d="M12 14.0424C12 12.9379 12.8954 12.0424 14 12.0424H67C68.1046 12.0424 69 12.9379 69 14.0424V42.8616C69 52.1232 62.3821 60.062 53.2718 61.7291V61.7291C52.1327 61.9376 50.9771 62.0424 49.8192 62.0424H30.3374C29.1748 62.0424 28.0148 61.9319 26.8732 61.7122V61.7122C18.2398 60.0513 12 52.4967 12 43.705V14.0424Z" fill="#AC785B"/>
<rect x="1.88971" y="12.0424" width="8.48459" height="8" transform="rotate(13.6631 1.88971 12.0424)" fill="#F0D800"/>
<path d="M2.87298 15.098L2.93123 14.8709L4.51624 15.2777L4.45798 15.5047L3.79344 15.3342L3.30937 17.2205L3.05346 17.1548L3.53752 15.2685L2.87298 15.098ZM4.36888 17.4924L4.9112 15.379L6.18664 15.7063L6.12838 15.9333L5.10886 15.6717L4.92561 16.3858L5.87909 16.6305L5.82084 16.8575L4.86736 16.6128L4.68305 17.331L5.71909 17.5969L5.66083 17.8239L4.36888 17.4924ZM6.19226 17.9603L5.92396 17.8914L7.24228 15.9772L7.50645 16.045L7.74012 18.3575L7.47182 18.2886L7.29682 16.3476L7.28031 16.3433L6.19226 17.9603ZM6.50317 17.1602L7.5846 17.4377L7.52635 17.6647L6.44491 17.3872L6.50317 17.1602Z" fill="black"/>
<path d="M16 41.6424L31 37.0424L32.5 47.0424L34 57.5424H16V41.6424Z" fill="#CECECE"/>
<path d="M16 46.033L31.5 42.0424L34 58.0424H16V46.033Z" fill="#6C6C6C"/>
<path d="M22.9012 40.0578C22.9568 37.9075 17.1179 9.27328 11.5 1.54242C8.7568 -2.23255 5.99998 13.5424 5.99998 13.5424" stroke="#A4A4A4" stroke-width="0.2"/>
<path d="M11 2.54243H70C70.2761 2.54243 70.5 2.76628 70.5 3.04243V42.5482C70.5 52.017 63.8582 60.1874 54.5889 62.1211C53.2459 62.4012 51.8777 62.5424 50.5058 62.5424H29.5643C28.1911 62.5424 26.8218 62.394 25.4804 62.0998C16.733 60.1814 10.5 52.4333 10.5 43.4781V3.04243C10.5 2.76628 10.7239 2.54243 11 2.54243Z" stroke="#633000" stroke-width="3"/>
<path d="M70.5 16.5424H73.5C81.232 16.5424 87.5 22.8104 87.5 30.5424C87.5 38.2744 81.232 44.5424 73.5 44.5424H70.5V16.5424Z" stroke="#633000" stroke-width="3"/>
</svg>
